<svg width="290" height="40" viewBox="0 0 290 40" fill="none" xmlns="http://www.w3.org/2000/svg">
<path d="M1.44 25V13.8H10.576V25H8.608V15.576H3.408V25H1.44ZM17.2476 25.192C15.9676 25.192 14.901 24.7653 14.0476 23.912C13.1943 23.0587 12.7676 22.0187 12.7676 20.792C12.7676 19.5653 13.1996 18.5253 14.0636 17.672C14.9276 16.808 15.9996 16.376 17.2796 16.376C18.5596 16.376 19.6263 16.8027 20.4796 17.656C21.3436 18.5093 21.7756 19.5547 21.7756 20.792C21.7756 22.008 21.3436 23.048 20.4796 23.912C19.6156 24.7653 18.5383 25.192 17.2476 25.192ZM17.2796 23.512C18.0476 23.512 18.6663 23.2507 19.1356 22.728C19.605 22.2053 19.8396 21.56 19.8396 20.792C19.8396 20.0347 19.5943 19.3947 19.1036 18.872C18.613 18.3387 17.9943 18.072 17.2476 18.072C16.4903 18.072 15.877 18.3333 15.4076 18.856C14.9383 19.3787 14.7036 20.024 14.7036 20.792C14.7036 21.5387 14.949 22.1787 15.4396 22.712C15.9303 23.2453 16.5436 23.512 17.2796 23.512ZM22.7713 27.032V23.336H23.6833C24.3126 22.0773 24.6273 20.1627 24.6273 17.592V16.552H31.1713V23.336H32.3713L32.1153 27.032H30.4993V25H24.5793L24.3873 27.032H22.7713ZM25.6673 23.336H29.2353V18.216H26.4513V19.336C26.4513 20.904 26.1899 22.2373 25.6673 23.336ZM33.9816 27.56V16.552H35.9176V17.96C36.6643 16.904 37.619 16.376 38.7816 16.376C39.8483 16.376 40.771 16.776 41.5496 17.576C42.3283 18.3653 42.7176 19.4373 42.7176 20.792C42.7176 22.1253 42.3283 23.192 41.5496 23.992C40.771 24.7813 39.8483 25.176 38.7816 25.176C37.619 25.176 36.6643 24.68 35.9176 23.688V27.56H33.9816ZM38.3336 23.496C39.0163 23.496 39.587 23.2453 40.0456 22.744C40.515 22.2427 40.7496 21.5813 40.7496 20.76C40.7496 19.96 40.515 19.3093 40.0456 18.808C39.5763 18.3067 39.0056 18.056 38.3336 18.056C37.6616 18.056 37.0803 18.312 36.5896 18.824C36.1096 19.336 35.8696 19.992 35.8696 20.792C35.8696 21.5813 36.1096 22.232 36.5896 22.744C37.0803 23.2453 37.6616 23.496 38.3336 23.496ZM48.7164 25.192C47.4364 25.192 46.3697 24.7653 45.5164 23.912C44.663 23.0587 44.2364 22.0187 44.2364 20.792C44.2364 19.5653 44.6684 18.5253 45.5324 17.672C46.3964 16.808 47.4684 16.376 48.7484 16.376C50.0284 16.376 51.095 16.8027 51.9484 17.656C52.8124 18.5093 53.2444 19.5547 53.2444 20.792C53.2444 22.008 52.8124 23.048 51.9484 23.912C51.0844 24.7653 50.007 25.192 48.7164 25.192ZM48.7484 23.512C49.5164 23.512 50.135 23.2507 50.6044 22.728C51.0737 22.2053 51.3084 21.56 51.3084 20.792C51.3084 20.0347 51.063 19.3947 50.5724 18.872C50.0817 18.3387 49.463 18.072 48.7164 18.072C47.959 18.072 47.3457 18.3333 46.8764 18.856C46.407 19.3787 46.1724 20.024 46.1724 20.792C46.1724 21.5387 46.4177 22.1787 46.9084 22.712C47.399 23.2453 48.0124 23.512 48.7484 23.512ZM59.344 23.512C60.0587 23.512 60.64 23.2667 61.088 22.776C61.5467 22.2747 61.776 21.656 61.776 20.92C61.776 20.1947 61.536 19.5813 61.056 19.08C60.5867 18.568 60.0053 18.312 59.312 18.312C58.608 18.312 58.0267 18.5627 57.568 19.064C57.12 19.5653 56.896 20.184 56.896 20.92C56.896 21.6453 57.1307 22.2587 57.6 22.76C58.0693 23.2613 58.6507 23.512 59.344 23.512ZM59.312 25.192C57.9467 25.192 56.88 24.76 56.112 23.896C55.344 23.032 54.96 21.8213 54.96 20.264C54.96 19.7627 54.9707 19.3253 54.992 18.952C55.024 18.568 55.0773 18.1573 55.152 17.72C55.2267 17.272 55.3387 16.8827 55.488 16.552C55.648 16.2213 55.8453 15.9067 56.08 15.608C56.3253 15.2987 56.6347 15.0427 57.008 14.84C57.392 14.6267 57.8347 14.4667 58.336 14.36L62.944 13.4L63.264 14.952L58.656 15.96C57.888 16.12 57.3387 16.408 57.008 16.824C56.6773 17.2293 56.4853 17.7413 56.432 18.36C56.688 17.9333 57.088 17.5653 57.632 17.256C58.1867 16.936 58.8693 16.776 59.68 16.776C60.7787 16.776 61.7227 17.176 62.512 17.976C63.312 18.7653 63.712 19.736 63.712 20.888C63.712 22.072 63.2907 23.0853 62.448 23.928C61.616 24.7707 60.5707 25.192 59.312 25.192ZM65.6848 25V16.552H67.6208V19.976H71.3488V16.552H73.2847V25H71.3488V21.592H67.6208V25H65.6848ZM79.588 25.192C78.3507 25.192 77.316 24.7813 76.484 23.96C75.6627 23.1387 75.252 22.0773 75.252 20.776C75.252 19.5493 75.6413 18.5093 76.42 17.656C77.1987 16.8027 78.1853 16.376 79.38 16.376C80.66 16.376 81.652 16.8133 82.356 17.688C83.0707 18.552 83.428 19.6293 83.428 20.92C83.428 21.1547 83.4173 21.336 83.396 21.464H77.188C77.2947 22.136 77.5667 22.664 78.004 23.048C78.4413 23.4213 78.98 23.608 79.62 23.608C80.452 23.608 81.2147 23.272 81.908 22.6L83.044 23.608C82.1693 24.664 81.0173 25.192 79.588 25.192ZM77.172 20.184H81.508C81.444 19.5333 81.2253 19 80.852 18.584C80.4787 18.168 79.9827 17.96 79.364 17.96C78.7773 17.96 78.2867 18.168 77.892 18.584C77.4973 18.9893 77.2573 19.5227 77.172 20.184ZM89.2443 25.192C88.0069 25.192 86.9723 24.7813 86.1403 23.96C85.3189 23.1387 84.9083 22.0773 84.9083 20.776C84.9083 19.5493 85.2976 18.5093 86.0763 17.656C86.8549 16.8027 87.8416 16.376 89.0363 16.376C90.3163 16.376 91.3083 16.8133 92.0123 17.688C92.7269 18.552 93.0843 19.6293 93.0843 20.92C93.0843 21.1547 93.0736 21.336 93.0523 21.464H86.8443C86.9509 22.136 87.2229 22.664 87.6603 23.048C88.0976 23.4213 88.6363 23.608 89.2763 23.608C90.1083 23.608 90.8709 23.272 91.5643 22.6L92.7003 23.608C91.8256 24.664 90.6736 25.192 89.2443 25.192ZM86.8283 20.184H91.1643C91.1003 19.5333 90.8816 19 90.5083 18.584C90.1349 18.168 89.6389 17.96 89.0203 17.96C88.4336 17.96 87.9429 18.168 87.5483 18.584C87.1536 18.9893 86.9136 19.5227 86.8283 20.184ZM99.8254 25V16.552H104.161C105.004 16.552 105.676 16.744 106.177 17.128C106.689 17.5013 106.945 18.0133 106.945 18.664C106.945 19.5493 106.492 20.1947 105.585 20.6C106.748 20.9307 107.329 21.6347 107.329 22.712C107.329 23.4267 107.047 23.9867 106.481 24.392C105.927 24.7973 105.169 25 104.209 25H99.8254ZM101.729 23.464H103.921C104.38 23.464 104.732 23.368 104.977 23.176C105.233 22.9733 105.361 22.7067 105.361 22.376C105.361 22.056 105.228 21.8053 104.961 21.624C104.705 21.4427 104.327 21.352 103.825 21.352H101.729V23.464ZM101.729 20.04H103.713C104.108 20.04 104.417 19.944 104.641 19.752C104.865 19.56 104.977 19.3093 104.977 19C104.977 18.712 104.876 18.4827 104.673 18.312C104.471 18.1307 104.161 18.04 103.745 18.04H101.729V20.04ZM113.996 25.096C113.686 25.096 113.308 25.0587 112.86 24.984L113.004 23.4C113.174 23.4427 113.361 23.464 113.564 23.464C113.788 23.464 113.969 23.432 114.108 23.368C114.257 23.304 114.406 23.144 114.556 22.888C114.716 22.6213 114.838 22.248 114.924 21.768C115.009 21.288 115.078 20.616 115.132 19.752C115.185 18.8773 115.212 17.8107 115.212 16.552H121.596V25H119.66V18.216H117.02C117.02 19.4213 116.972 20.4453 116.876 21.288C116.78 22.1307 116.652 22.7973 116.492 23.288C116.342 23.7787 116.129 24.1627 115.852 24.44C115.585 24.7067 115.313 24.8827 115.036 24.968C114.758 25.0533 114.412 25.096 113.996 25.096ZM124.029 25V16.552H125.917V22.216C127.687 19.6987 129.021 17.8107 129.917 16.552H131.741V25H129.869V19.368L125.853 25H124.029ZM139.305 25V21.848C138.473 22.2747 137.636 22.488 136.793 22.488C135.929 22.488 135.23 22.2587 134.697 21.8C134.174 21.3307 133.913 20.6747 133.913 19.832V16.552H135.849V19.368C135.849 19.7733 135.977 20.12 136.233 20.408C136.489 20.696 136.825 20.84 137.241 20.84C137.966 20.84 138.654 20.6533 139.305 20.28V16.552H141.241V25H139.305ZM143.669 25V16.552H145.605V19.976H149.333V16.552H151.269V25H149.333V21.592H145.605V25H143.669ZM157.716 25.192C156.436 25.192 155.37 24.7653 154.516 23.912C153.663 23.0587 153.236 22.0187 153.236 20.792C153.236 19.5653 153.668 18.5253 154.532 17.672C155.396 16.808 156.468 16.376 157.748 16.376C159.028 16.376 160.095 16.8027 160.948 17.656C161.812 18.5093 162.244 19.5547 162.244 20.792C162.244 22.008 161.812 23.048 160.948 23.912C160.084 24.7653 159.007 25.192 157.716 25.192ZM157.748 23.512C158.516 23.512 159.135 23.2507 159.604 22.728C160.074 22.2053 160.308 21.56 160.308 20.792C160.308 20.0347 160.063 19.3947 159.572 18.872C159.082 18.3387 158.463 18.072 157.716 18.072C156.959 18.072 156.346 18.3333 155.876 18.856C155.407 19.3787 155.172 20.024 155.172 20.792C155.172 21.5387 155.418 22.1787 155.908 22.712C156.399 23.2453 157.012 23.512 157.748 23.512ZM164.216 25V16.552H166.136L168.776 20.472L171.432 16.552H173.352V25H171.4V19.368L168.744 23.16L166.104 19.4V25H164.216ZM180.575 25V16.552H182.495V20.6L186.175 16.552H188.447L185.167 20.104L188.719 25H186.431L183.871 21.512L182.495 22.968V25H180.575ZM197.148 25H195.228V23.96C194.545 24.7707 193.633 25.176 192.492 25.176C191.649 25.176 190.934 24.9467 190.348 24.488C189.772 24.0187 189.484 23.368 189.484 22.536C189.484 21.6293 189.798 20.9413 190.428 20.472C191.057 20.0027 191.884 19.768 192.908 19.768C193.729 19.768 194.508 19.8853 195.244 20.12V19.96C195.244 19.3733 195.062 18.9253 194.7 18.616C194.348 18.3067 193.836 18.152 193.164 18.152C192.396 18.152 191.59 18.328 190.748 18.68L190.22 17.128C191.265 16.6587 192.337 16.424 193.436 16.424C194.662 16.424 195.585 16.7333 196.204 17.352C196.833 17.9707 197.148 18.8507 197.148 19.992V25ZM195.276 21.944V21.464C194.7 21.24 194.054 21.128 193.34 21.128C192.732 21.128 192.257 21.2453 191.916 21.48C191.574 21.7147 191.404 22.0453 191.404 22.472C191.404 22.856 191.558 23.16 191.868 23.384C192.177 23.608 192.566 23.72 193.036 23.72C193.686 23.72 194.22 23.5547 194.636 23.224C195.062 22.8933 195.276 22.4667 195.276 21.944ZM203.578 23.512C204.293 23.512 204.874 23.2667 205.322 22.776C205.781 22.2747 206.01 21.656 206.01 20.92C206.01 20.1947 205.77 19.5813 205.29 19.08C204.821 18.568 204.24 18.312 203.546 18.312C202.842 18.312 202.261 18.5627 201.802 19.064C201.354 19.5653 201.13 20.184 201.13 20.92C201.13 21.6453 201.365 22.2587 201.834 22.76C202.304 23.2613 202.885 23.512 203.578 23.512ZM203.546 25.192C202.181 25.192 201.114 24.76 200.346 23.896C199.578 23.032 199.194 21.8213 199.194 20.264C199.194 19.7627 199.205 19.3253 199.226 18.952C199.258 18.568 199.312 18.1573 199.386 17.72C199.461 17.272 199.573 16.8827 199.722 16.552C199.882 16.2213 200.08 15.9067 200.314 15.608C200.56 15.2987 200.869 15.0427 201.242 14.84C201.626 14.6267 202.069 14.4667 202.57 14.36L207.178 13.4L207.498 14.952L202.89 15.96C202.122 16.12 201.573 16.408 201.242 16.824C200.912 17.2293 200.72 17.7413 200.666 18.36C200.922 17.9333 201.322 17.5653 201.866 17.256C202.421 16.936 203.104 16.776 203.914 16.776C205.013 16.776 205.957 17.176 206.746 17.976C207.546 18.7653 207.946 19.736 207.946 20.888C207.946 22.072 207.525 23.0853 206.682 23.928C205.85 24.7707 204.805 25.192 203.546 25.192ZM209.919 25V16.552H211.807V22.216C213.578 19.6987 214.911 17.8107 215.807 16.552H217.631V25H215.759V19.368L211.743 25H209.919ZM220.06 25V16.552H221.996V19.976H225.724V16.552H227.66V25H225.724V21.592H221.996V25H220.06ZM233.963 25.192C232.726 25.192 231.691 24.7813 230.859 23.96C230.038 23.1387 229.627 22.0773 229.627 20.776C229.627 19.5493 230.016 18.5093 230.795 17.656C231.574 16.8027 232.56 16.376 233.755 16.376C235.035 16.376 236.027 16.8133 236.731 17.688C237.446 18.552 237.803 19.6293 237.803 20.92C237.803 21.1547 237.792 21.336 237.771 21.464H231.563C231.67 22.136 231.942 22.664 232.379 23.048C232.816 23.4213 233.355 23.608 233.995 23.608C234.827 23.608 235.59 23.272 236.283 22.6L237.419 23.608C236.544 24.664 235.392 25.192 233.963 25.192ZM231.547 20.184H235.883C235.819 19.5333 235.6 19 235.227 18.584C234.854 18.168 234.358 17.96 233.739 17.96C233.152 17.96 232.662 18.168 232.267 18.584C231.872 18.9893 231.632 19.5227 231.547 20.184ZM241.555 25V18.216H238.835V16.552H246.227V18.216H243.507V25H241.555ZM251.635 25.192C250.398 25.192 249.363 24.7813 248.531 23.96C247.71 23.1387 247.299 22.0773 247.299 20.776C247.299 19.5493 247.688 18.5093 248.467 17.656C249.246 16.8027 250.232 16.376 251.427 16.376C252.707 16.376 253.699 16.8133 254.403 17.688C255.118 18.552 255.475 19.6293 255.475 20.92C255.475 21.1547 255.464 21.336 255.443 21.464H249.235C249.342 22.136 249.614 22.664 250.051 23.048C250.488 23.4213 251.027 23.608 251.667 23.608C252.499 23.608 253.262 23.272 253.955 22.6L255.091 23.608C254.216 24.664 253.064 25.192 251.635 25.192ZM249.219 20.184H253.555C253.491 19.5333 253.272 19 252.899 18.584C252.526 18.168 252.03 17.96 251.411 17.96C250.824 17.96 250.334 18.168 249.939 18.584C249.544 18.9893 249.304 19.5227 249.219 20.184Z" fill="#2741D0"/>
<g clip-path="url(#clip0_0_668)">
<path d="M282.379 14.4586L283.637 12.9927L289.226 18.5962C289.996 19.3683 289.993 20.6493 289.22 21.4234L283.643 27.0075L282.386 25.5408L287.913 20.007L282.379 14.4586Z" fill="#2741D0"/>
<path d="M275 18.9985H287.947V20.998H275V18.9985Z" fill="#2741D0"/>
</g>
<defs>
<clipPath id="clip0_0_668">
<rect width="14.8014" height="16" fill="white" transform="matrix(-1 0 0 1 289.801 12)"/>
</clipPath>
</defs>
</svg>
