<svg width="41" height="58" viewBox="0 0 41 58" fill="none" xmlns="http://www.w3.org/2000/svg">
<path d="M35.968 58.0001H5.77654C3.00183 58.0001 0.744629 55.7381 0.744629 52.9575V5.66951C0.744629 2.88893 3.00183 0.626953 5.77654 0.626953H35.968C38.7427 0.626953 40.9999 2.88893 40.9999 5.66951V52.9575C40.9999 55.7381 38.7427 58.0001 35.968 58.0001Z" fill="url(#paint0_linear_0_620)"/>
<path d="M32.6134 7.35034H9.13116C8.20406 7.35034 7.45386 8.10213 7.45386 9.0312V22.478C7.45386 23.4071 8.20406 24.1589 9.13116 24.1589H32.6134C33.5405 24.1589 34.2907 23.4071 34.2907 22.478V9.0312C34.2907 8.10213 33.5405 7.35034 32.6134 7.35034ZM12.4858 27.5206H9.13116C8.20406 27.5206 7.45386 28.2724 7.45386 29.2014C7.45386 30.1305 8.20406 30.8823 9.13116 30.8823H12.4858C13.4129 30.8823 14.1631 30.1305 14.1631 29.2014C14.1631 28.2724 13.4129 27.5206 12.4858 27.5206ZM12.4858 34.244H9.13116C8.20406 34.244 7.45386 34.9958 7.45386 35.9249C7.45386 36.8539 8.20406 37.6057 9.13116 37.6057H12.4858C13.4129 37.6057 14.1631 36.8539 14.1631 35.9249C14.1631 34.9958 13.4129 34.244 12.4858 34.244ZM19.195 37.6057H22.5496C23.4767 37.6057 24.2269 36.8539 24.2269 35.9249C24.2269 34.9958 23.4767 34.244 22.5496 34.244H19.195C18.2679 34.244 17.5177 34.9958 17.5177 35.9249C17.5177 36.8539 18.2679 37.6057 19.195 37.6057ZM32.6134 34.244H29.2588C28.3317 34.244 27.5815 34.9958 27.5815 35.9249C27.5815 36.8539 28.3317 37.6057 29.2588 37.6057H32.6134C33.5405 37.6057 34.2907 36.8539 34.2907 35.9249C34.2907 34.9958 33.5405 34.244 32.6134 34.244ZM32.6134 40.9674H29.2588C28.3317 40.9674 27.5815 41.7192 27.5815 42.6483C27.5815 43.5773 28.3317 44.3291 29.2588 44.3291H32.6134C33.5405 44.3291 34.2907 43.5773 34.2907 42.6483C34.2907 41.7192 33.5405 40.9674 32.6134 40.9674ZM19.195 44.3291H22.5496C23.4767 44.3291 24.2269 43.5773 24.2269 42.6483C24.2269 41.7192 23.4767 40.9674 22.5496 40.9674H19.195C18.2679 40.9674 17.5177 41.7192 17.5177 42.6483C17.5177 43.5773 18.2679 44.3291 19.195 44.3291ZM12.4858 40.9674H9.13116C8.20406 40.9674 7.45386 41.7192 7.45386 42.6483C7.45386 43.5773 8.20406 44.3291 9.13116 44.3291H12.4858C13.4129 44.3291 14.1631 43.5773 14.1631 42.6483C14.1631 41.7192 13.4129 40.9674 12.4858 40.9674ZM12.4858 47.6908H9.13116C8.20406 47.6908 7.45386 48.4426 7.45386 49.3717C7.45386 50.3007 8.20406 51.0525 9.13116 51.0525H12.4858C13.4129 51.0525 14.1631 50.3007 14.1631 49.3717C14.1631 48.4426 13.4129 47.6908 12.4858 47.6908ZM32.6134 47.6908H19.195C18.2679 47.6908 17.5177 48.4426 17.5177 49.3717C17.5177 50.3007 18.2679 51.0525 19.195 51.0525H32.6134C33.5405 51.0525 34.2907 50.3007 34.2907 49.3717C34.2907 48.4426 33.5405 47.6908 32.6134 47.6908ZM19.195 30.8823H22.5496C23.4767 30.8823 24.2269 30.1305 24.2269 29.2014C24.2269 28.2724 23.4767 27.5206 22.5496 27.5206H19.195C18.2679 27.5206 17.5177 28.2724 17.5177 29.2014C17.5177 30.1305 18.2679 30.8823 19.195 30.8823ZM32.6134 27.5206H29.2588C28.3317 27.5206 27.5815 28.2724 27.5815 29.2014C27.5815 30.1305 28.3317 30.8823 29.2588 30.8823H32.6134C33.5405 30.8823 34.2907 30.1305 34.2907 29.2014C34.2907 28.2724 33.5405 27.5206 32.6134 27.5206Z" fill="url(#paint1_linear_0_620)"/>
<defs>
<linearGradient id="paint0_linear_0_620" x1="9.42715" y1="0.626953" x2="40.9999" y2="0.626953" gradientUnits="userSpaceOnUse">
<stop stop-color="#E1D8FF"/>
<stop offset="1" stop-color="#F4ECFF"/>
</linearGradient>
<linearGradient id="paint1_linear_0_620" x1="20.8723" y1="51.0525" x2="20.8723" y2="7.35034" gradientUnits="userSpaceOnUse">
<stop stop-color="#BBA6FF"/>
<stop offset="1" stop-color="#E3D7FA"/>
</linearGradient>
</defs>
</svg>
